<svg width="25" height="24" viewBox="0 0 25 24" fill="none" xmlns="http://www.w3.org/2000/svg">
<rect x="0.5" width="24" height="24" rx="8" fill="#3F3F55"/>
<path d="M18.0447 6.91719C17.0249 6.44927 15.9313 6.10453 14.7879 5.90708C14.7671 5.90327 14.7463 5.91279 14.7356 5.93184C14.5949 6.18198 14.4392 6.50831 14.3301 6.76481C13.1003 6.5807 11.8768 6.5807 10.6722 6.76481C10.5631 6.50261 10.4017 6.18198 10.2604 5.93184C10.2497 5.91343 10.2289 5.9039 10.208 5.90708C9.06527 6.1039 7.97171 6.44864 6.95129 6.91719C6.94246 6.921 6.93488 6.92736 6.92986 6.9356C4.85559 10.0345 4.28737 13.0572 4.56612 16.0425C4.56738 16.0571 4.57558 16.0711 4.58693 16.08C5.95547 17.085 7.28114 17.6951 8.58219 18.0995C8.60301 18.1059 8.62507 18.0983 8.63832 18.0811C8.94608 17.6609 9.22043 17.2177 9.45565 16.7517C9.46953 16.7244 9.45628 16.692 9.42791 16.6812C8.99275 16.5161 8.5784 16.3149 8.17982 16.0863C8.14829 16.0679 8.14577 16.0228 8.17477 16.0012C8.25865 15.9384 8.34255 15.873 8.42264 15.807C8.43713 15.7949 8.45732 15.7923 8.47435 15.8C11.0929 16.9955 13.9277 16.9955 16.5153 15.8C16.5323 15.7917 16.5525 15.7943 16.5677 15.8063C16.6478 15.8723 16.7316 15.9384 16.8161 16.0012C16.8451 16.0228 16.8433 16.0679 16.8117 16.0863C16.4131 16.3193 15.9988 16.5161 15.563 16.6806C15.5346 16.6914 15.522 16.7244 15.5359 16.7517C15.7762 17.217 16.0505 17.6602 16.3526 18.0805C16.3652 18.0983 16.3879 18.1059 16.4087 18.0995C17.7161 17.6951 19.0417 17.085 20.4103 16.08C20.4223 16.0711 20.4298 16.0577 20.4311 16.0431C20.7647 12.5919 19.8723 9.5939 18.0655 6.93623C18.0611 6.92736 18.0535 6.921 18.0447 6.91719Z" fill="#E744F6"/>
<path d="M8.40869 12.6121C8.40869 13.501 9.05827 14.2248 9.84662 14.2248C10.6475 14.2248 11.2845 13.501 11.2845 12.6121C11.2971 11.7296 10.6539 10.9995 9.84662 10.9995C9.04567 10.9995 8.40869 11.7233 8.40869 12.6121Z" fill="#FCFCFC"/>
<path d="M13.7252 12.6121C13.7252 13.501 14.3748 14.2248 15.1631 14.2248C15.9704 14.2248 16.601 13.501 16.601 12.6121C16.6136 11.7296 15.9704 10.9995 15.1631 10.9995C14.3622 10.9995 13.7252 11.7233 13.7252 12.6121Z" fill="#FCFCFC"/>
</svg>
