<svg width="25" height="24" viewBox="0 0 25 24" fill="none" xmlns="http://www.w3.org/2000/svg">
<rect x="0.5" width="24" height="24" rx="8" fill="#3F3F55"/>
<g clip-path="url(#clip0_2466_8903)">
<path d="M20.5 12C20.5 7.58172 16.9183 4 12.5 4C8.08172 4 4.5 7.58172 4.5 12C4.5 15.993 7.42548 19.3027 11.25 19.9028V14.3125H9.21875V12H11.25V10.2375C11.25 8.2325 12.4443 7.125 14.2717 7.125C15.147 7.125 16.0625 7.28125 16.0625 7.28125V9.25H15.0537C14.0599 9.25 13.75 9.86667 13.75 10.4993V12H15.9688L15.6141 14.3125H13.75V19.9028C17.5745 19.3027 20.5 15.993 20.5 12Z" fill="#E744F6"/>
<path d="M15.6141 14.3125L15.9687 12H13.75V10.4993C13.75 9.86667 14.0599 9.25 15.0537 9.25H16.0625V7.28125C16.0625 7.28125 15.147 7.125 14.2717 7.125C12.4443 7.125 11.25 8.2325 11.25 10.2375V12H9.21875V14.3125H11.25V19.9028C11.6573 19.9667 12.0747 20 12.5 20C12.9252 20 13.3427 19.9667 13.75 19.9028V14.3125H15.6141Z" fill="#FCFCFC"/>
</g>
<defs>
<clipPath id="clip0_2466_8903">
<rect width="16" height="16" fill="white" transform="translate(4.5 4)"/>
</clipPath>
</defs>
</svg>
