<svg width="40" height="40" viewBox="0 0 40 40" fill="none" xmlns="http://www.w3.org/2000/svg">
<rect width="40" height="40" rx="8" fill="#3F3F55"/>
<path fill-rule="evenodd" clip-rule="evenodd" d="M11.7838 20C11.7838 15.4623 15.4623 11.7838 20 11.7838C24.5377 11.7838 28.2162 15.4623 28.2162 20C28.2162 24.5377 24.5377 28.2162 20 28.2162C15.4623 28.2162 11.7838 24.5377 11.7838 20ZM20 25.3333C17.0545 25.3333 14.6667 22.9455 14.6667 20C14.6667 17.0545 17.0545 14.6667 20 14.6667C22.9455 14.6667 25.3333 17.0545 25.3333 20C25.3333 22.9455 22.9455 25.3333 20 25.3333Z" fill="#E744F6"/>
<path d="M28.5408 13.3791C29.6012 13.3791 30.4609 12.5196 30.4609 11.4592C30.4609 10.3988 29.6012 9.53914 28.5408 9.53914C27.4805 9.53914 26.6208 10.3988 26.6208 11.4592C26.6208 12.5196 27.4805 13.3791 28.5408 13.3791Z" fill="#E744F6"/>
<path fill-rule="evenodd" clip-rule="evenodd" d="M20 4C15.6547 4 15.1098 4.01842 13.4032 4.09628C11.7002 4.17396 10.5371 4.44446 9.51939 4.84001C8.46725 5.24884 7.57497 5.79593 6.68542 6.68542C5.79593 7.57497 5.24884 8.46725 4.84001 9.51939C4.44446 10.5371 4.17396 11.7002 4.09628 13.4032C4.01842 15.1098 4 15.6547 4 20C4 24.3453 4.01842 24.8902 4.09628 26.5968C4.17396 28.2998 4.44446 29.4629 4.84001 30.4806C5.24884 31.5327 5.79593 32.425 6.68542 33.3146C7.57497 34.2041 8.46725 34.7512 9.51939 35.1601C10.5371 35.5555 11.7002 35.826 13.4032 35.9037C15.1098 35.9816 15.6547 36 20 36C24.3453 36 24.8902 35.9816 26.5968 35.9037C28.2998 35.826 29.4629 35.5555 30.4806 35.1601C31.5327 34.7512 32.425 34.2041 33.3146 33.3146C34.2041 32.425 34.7512 31.5327 35.1601 30.4806C35.5555 29.4629 35.826 28.2998 35.9037 26.5968C35.9816 24.8902 36 24.3453 36 20C36 15.6547 35.9816 15.1098 35.9037 13.4032C35.826 11.7002 35.5555 10.5371 35.1601 9.51939C34.7512 8.46725 34.2041 7.57497 33.3146 6.68542C32.425 5.79593 31.5327 5.24884 30.4806 4.84001C29.4629 4.44446 28.2998 4.17396 26.5968 4.09628C24.8902 4.01842 24.3453 4 20 4ZM20 6.88288C24.2722 6.88288 24.7782 6.8992 26.4654 6.97618C28.0254 7.04731 28.8725 7.30796 29.4363 7.52708C30.1832 7.81733 30.7162 8.16404 31.276 8.72397C31.836 9.28383 32.1827 9.81682 32.4729 10.5637C32.692 11.1275 32.9527 11.9746 33.0238 13.5346C33.1008 15.2218 33.1171 15.7278 33.1171 20C33.1171 24.2722 33.1008 24.7782 33.0238 26.4654C32.9527 28.0254 32.692 28.8725 32.4729 29.4363C32.1827 30.1832 31.836 30.7162 31.276 31.276C30.7162 31.836 30.1832 32.1827 29.4363 32.4729C28.8725 32.692 28.0254 32.9527 26.4654 33.0238C24.7785 33.1008 24.2725 33.1171 20 33.1171C15.7275 33.1171 15.2216 33.1008 13.5346 33.0238C11.9746 32.9527 11.1275 32.692 10.5637 32.4729C9.81682 32.1827 9.28383 31.836 8.72397 31.276C8.16411 30.7162 7.81733 30.1832 7.52708 29.4363C7.30797 28.8725 7.04731 28.0254 6.97618 26.4654C6.8992 24.7782 6.88288 24.2722 6.88288 20C6.88288 15.7278 6.8992 15.2218 6.97618 13.5346C7.04731 11.9746 7.30797 11.1275 7.52708 10.5637C7.81733 9.81682 8.16405 9.28383 8.72397 8.72397C9.28383 8.16404 9.81682 7.81733 10.5637 7.52708C11.1275 7.30796 11.9746 7.04731 13.5346 6.97618C15.2218 6.8992 15.7278 6.88288 20 6.88288Z" fill="#E744F6"/>
</svg>
