<svg width="25" height="24" viewBox="0 0 25 24" fill="none" xmlns="http://www.w3.org/2000/svg">
<rect x="0.5" width="24" height="24" rx="8" fill="#3F3F55"/>
<path d="M19.3147 4.00119H5.68066C5.03629 3.99392 4.50786 4.51009 4.5 5.15446V18.8453C4.50759 19.49 5.03598 20.0067 5.68066 19.9999H19.3147C19.9606 20.0079 20.4911 19.4913 20.5 18.8453V5.15348C20.4908 4.50783 19.9603 3.99169 19.3147 4.0001" fill="#E744F6"/>
<path d="M15.7619 17.6329H18.1326L18.1336 13.4445C18.1336 11.3884 17.6906 9.80791 15.2878 9.80791C14.3692 9.77381 13.5063 10.2477 13.0423 11.0412H13.0104V9.99781H10.7345V17.6326H13.1052V13.8557C13.1052 12.8598 13.2941 11.8952 14.5289 11.8952C15.7461 11.8952 15.7619 13.0348 15.7619 13.9202V17.6329Z" fill="#FCFCFC"/>
<path d="M6.68359 7.57866C6.68373 8.33848 7.29978 8.95433 8.05959 8.95419C8.42446 8.95412 8.77436 8.80911 9.03231 8.55106C9.29027 8.29301 9.43515 7.94304 9.43509 7.57817C9.43495 6.81835 8.8189 6.2025 8.05909 6.20264C7.29929 6.20277 6.68346 6.81884 6.68359 7.57866Z" fill="#FCFCFC"/>
<path d="M6.87177 17.6329H9.24494V9.99781H6.87177V17.6329Z" fill="#FCFCFC"/>
</svg>
