<svg width="40" height="40" viewBox="0 0 40 40" fill="none" xmlns="http://www.w3.org/2000/svg">
<rect width="40" height="40" rx="8" fill="#3F3F55"/>
<path fill-rule="evenodd" clip-rule="evenodd" d="M36 20C36 28.8365 28.8365 36 20 36C11.1635 36 4 28.8365 4 20C4 11.1635 11.1635 4 20 4C28.8365 4 36 11.1635 36 20Z" fill="#E744F6"/>
<path fill-rule="evenodd" clip-rule="evenodd" d="M28.3308 17.6665C29.6196 17.6665 30.6641 18.711 30.6641 19.9998C30.6641 20.9518 30.0933 21.769 29.2761 22.132C29.3116 22.3623 29.3308 22.596 29.3308 22.833C29.3308 26.423 25.1521 29.333 19.9976 29.333C14.8428 29.333 10.6641 26.423 10.6641 22.833C10.6641 22.5945 10.6838 22.3593 10.7198 22.1273C9.90781 21.7623 9.34131 20.948 9.34131 19.9998C9.34131 18.711 10.3858 17.6665 11.6746 17.6665C12.3013 17.6665 12.8691 17.9148 13.2883 18.317C14.9036 17.1533 17.1363 16.4088 19.6198 16.34L20.8068 10.76C20.8298 10.652 20.8948 10.5573 20.9876 10.4973C21.0801 10.4368 21.1931 10.4155 21.3011 10.439L25.1786 11.2633C25.4513 10.714 26.0121 10.333 26.6668 10.333C27.5873 10.333 28.3333 11.0793 28.3333 11.9998C28.3333 12.9203 27.5873 13.6665 26.6668 13.6665C25.7733 13.6665 25.0503 12.9618 25.0081 12.079L21.5353 11.3408L20.4726 16.3415C22.9201 16.427 25.1176 17.1703 26.7126 18.3213C27.1321 17.9165 27.7018 17.6665 28.3308 17.6665ZM22.0001 21.6668C22.0001 22.5858 22.7478 23.3335 23.6668 23.3335C24.5858 23.3335 25.3333 22.5858 25.3333 21.6668C25.3333 20.7478 24.5858 19.9998 23.6668 19.9998C22.7478 19.9998 22.0001 20.7478 22.0001 21.6668ZM23.9601 26.0705C22.8226 27.2065 20.6428 27.2948 20.0021 27.2948C19.3608 27.2948 17.1811 27.2065 16.0448 26.0703C15.8763 25.9018 15.8763 25.6283 16.0451 25.4595C16.2136 25.291 16.4871 25.2908 16.6558 25.4595C17.3728 26.1765 18.9066 26.431 20.0021 26.431C21.0976 26.431 22.6316 26.1765 23.3498 25.4593C23.5188 25.2908 23.7921 25.291 23.9606 25.4598C24.1291 25.6285 24.1291 25.902 23.9601 26.0705ZM16.3341 19.9998C15.4148 19.9998 14.6668 20.7475 14.6668 21.6665C14.6668 22.5853 15.4148 23.333 16.3341 23.333C17.2526 23.333 18.0001 22.5853 18.0001 21.6665C18.0001 20.7475 17.2526 19.9998 16.3341 19.9998Z" fill="white"/>
</svg>
