<svg width="40" height="40" viewBox="0 0 40 40" fill="none" xmlns="http://www.w3.org/2000/svg">
<rect width="40" height="40" rx="8" fill="#3F3F55"/>
<path d="M20 36C28.8366 36 36 28.8366 36 20C36 11.1634 28.8366 4 20 4C11.1634 4 4 11.1634 4 20C4 28.8366 11.1634 36 20 36Z" fill="#E744F6"/>
<path fill-rule="evenodd" clip-rule="evenodd" d="M11.2425 19.8309C15.9068 17.7988 19.0171 16.459 20.5733 15.8117C25.0167 13.9636 25.94 13.6426 26.5418 13.6319C26.6741 13.6296 26.9701 13.6624 27.1618 13.818C27.3236 13.9493 27.3682 14.1267 27.3895 14.2513C27.4108 14.3758 27.4373 14.6595 27.4162 14.8811C27.1755 17.4111 26.1336 23.5507 25.6035 26.3843C25.3792 27.5833 24.9376 27.9854 24.5101 28.0247C23.5809 28.1102 22.8754 27.4107 21.9754 26.8207C20.5672 25.8976 19.7717 25.323 18.4048 24.4222C16.8251 23.3812 17.8491 22.8091 18.7494 21.874C18.985 21.6293 23.0789 17.9056 23.1581 17.5678C23.168 17.5256 23.1772 17.3681 23.0836 17.285C22.9901 17.2018 22.852 17.2303 22.7524 17.2529C22.6111 17.2849 20.3615 18.7718 16.0035 21.7136C15.3649 22.1521 14.7866 22.3658 14.2683 22.3546C13.6971 22.3422 12.5981 22.0315 11.7812 21.766C10.7792 21.4403 9.98284 21.2681 10.0522 20.7149C10.0883 20.4268 10.4851 20.1321 11.2425 19.8309Z" fill="white"/>
</svg>
