<svg width="25" height="24" viewBox="0 0 25 24" fill="none" xmlns="http://www.w3.org/2000/svg">
<rect x="0.5" width="24" height="24" rx="8" fill="#3F3F55"/>
<rect x="4.5" y="4" width="16" height="16" rx="8" fill="#E744F6"/>
<path d="M16.9332 9.03119V9.45088C16.3714 9.33091 15.8611 9.03847 15.4736 8.61441C15.9113 8.88754 16.4172 9.03197 16.9332 9.03119Z" fill="#FCFCFC"/>
<path fill-rule="evenodd" clip-rule="evenodd" d="M14.7614 10.6038V14.6274C14.7614 16.6403 13.1288 18.272 11.1148 18.272C10.0932 18.272 9.16984 17.8521 8.50768 17.1755C9.08786 17.5649 9.78626 17.7919 10.5376 17.7919C12.5514 17.7919 14.184 16.1603 14.184 14.1474V10.1237C14.959 10.6772 15.9081 11.0029 16.9332 11.0029V9.45088C17.123 9.4911 17.3165 9.51134 17.5105 9.51126V11.483C16.4854 11.483 15.5362 11.1573 14.7614 10.6038ZM14.7614 10.6038C14.7614 10.6038 14.7614 10.6038 14.7614 10.6038V10.6038Z" fill="#FCFCFC"/>
<path d="M14.184 6.52557C14.191 6.60141 14.2011 6.67695 14.2142 6.75197H12.7771V14.6273C12.7739 15.5454 12.0283 16.2888 11.1091 16.2888C10.5674 16.2888 10.0861 16.0307 9.78131 15.6309C10.007 15.7448 10.2618 15.8088 10.5318 15.8088C11.4511 15.8088 12.1965 15.0654 12.1997 14.1474V6.27197H14.184V6.52557Z" fill="#FCFCFC"/>
<path d="M11.038 10.5369V10.9837C9.05954 11.0245 7.46846 12.6403 7.46846 14.6273C7.46846 15.6192 7.86464 16.5185 8.50768 17.1755C7.53267 16.5213 6.89111 15.4092 6.89111 14.1474C6.89111 12.1347 8.52368 10.503 10.5377 10.503C10.705 10.5029 10.8722 10.5142 11.038 10.5369Z" fill="#FCFCFC"/>
<path d="M14.7613 7.00557C14.8176 7.62334 15.0776 8.18206 15.4736 8.61441C14.8217 8.20783 14.3519 7.53711 14.2142 6.75197L14.7613 6.75197V7.00557Z" fill="#FCFCFC"/>
<path d="M9.44113 14.6216C9.4406 14.9863 9.5601 15.341 9.78131 15.6309C9.23703 15.3564 8.86386 14.7927 8.86386 14.1417C8.86386 13.221 9.61055 12.4746 10.5318 12.4746C10.7036 12.4745 10.8743 12.5008 11.038 12.5527L11.038 10.9837C11.231 10.9796 11.4239 10.9907 11.6151 11.0169V13.0327C11.4515 12.9808 11.2808 12.9545 11.1092 12.9546C10.1879 12.9546 9.44113 13.701 9.44113 14.6216Z" fill="#FCFCFC"/>
</svg>
