<svg width="291" height="202" viewBox="0 0 291 202" fill="none" xmlns="http://www.w3.org/2000/svg">
<g opacity="0.4">
<path d="M169.638 169.141C200.745 187.101 240.521 176.443 258.481 145.336C276.441 114.229 265.783 74.4521 234.676 56.4924C203.568 38.5326 163.792 49.1908 145.832 80.2979C127.872 111.405 138.53 151.182 169.638 169.141Z" fill="#292D32"/>
<path d="M169.638 169.141C200.745 187.101 240.521 176.443 258.481 145.336C276.441 114.229 265.783 74.4521 234.676 56.4924C203.568 38.5326 163.792 49.1908 145.832 80.2979C127.872 111.405 138.53 151.182 169.638 169.141Z" fill="url(#paint0_linear_2466_8344)"/>
</g>
<path d="M228.715 125.221C232.448 123.697 235.816 120.985 237.995 117.212C243.036 108.481 239.831 96.3424 231.044 91.2694L226.087 88.4077L230.673 80.466C232.006 78.1567 231.196 75.136 228.887 73.8027C226.578 72.4694 223.557 73.2788 222.224 75.5881L217.606 83.5862L212.086 80.3993L210.791 79.6514L215.409 71.6533C216.742 69.344 215.932 66.3233 213.623 64.99C211.314 63.6568 208.406 64.5312 207.073 66.8405L202.455 74.8386L200.54 73.7329L190.796 68.1072C188.486 66.7739 185.466 67.5833 184.132 69.8926C182.799 72.2019 183.608 75.2226 185.918 76.5558L191.438 79.7427L179.796 99.9069L168.154 120.071L162.634 116.884C160.325 115.551 157.304 116.36 155.971 118.67C154.638 120.979 155.447 124 157.756 125.333L167.5 130.959L169.359 132.032L164.741 140.03C163.408 142.339 164.218 145.36 166.527 146.693C168.836 148.026 171.857 147.217 173.19 144.908L177.808 136.91L179.103 137.658L184.623 140.844L180.005 148.843C178.672 151.152 179.482 154.173 181.791 155.506C184.1 156.839 187.121 156.03 188.454 153.72L193.072 145.722L202.365 151.088C212.391 156.876 224.818 154.213 230.054 145.145C233.631 138.949 232.81 131.266 228.715 125.221ZM207.265 88.8805L226.19 99.8069C230.696 102.408 231.716 108.705 229.57 112.423C227.034 116.816 221.348 118.34 216.954 115.803L190.651 100.617L199.886 84.6206L207.265 88.8805ZM207.243 142.639L183.981 129.209L176.603 124.949L185.806 109.009L212.109 124.195L216.446 126.699C221.797 129.789 224.109 135.93 221.573 140.323C219.036 144.717 212.594 145.729 207.243 142.639Z" fill="#FCFCFC"/>
<g opacity="0.4">
<path d="M140.464 112.351L84.1394 144.87C67.242 154.626 51.0993 152.681 39.7176 132.967L16.9543 93.54C5.57267 73.8264 11.9597 58.8739 28.8571 49.1182L85.1817 16.5992C102.079 6.84349 118.222 8.78837 129.603 28.502L152.367 67.9291C163.748 87.6427 157.361 102.595 140.464 112.351Z" fill="#292D32"/>
<path d="M140.464 112.351L84.1394 144.87C67.242 154.626 51.0993 152.681 39.7176 132.967L16.9543 93.54C5.57267 73.8264 11.9597 58.8739 28.8571 49.1182L85.1817 16.5992C102.079 6.84349 118.222 8.78837 129.603 28.502L152.367 67.9291C163.748 87.6427 157.361 102.595 140.464 112.351Z" fill="url(#paint1_linear_2466_8344)"/>
</g>
<path d="M67.9169 94.2409C66.5233 95.0455 65.0794 95.2733 63.5852 94.9241C62.1166 94.4794 60.98 93.5602 60.1754 92.1666C59.4057 90.8336 59.2305 89.4806 59.6496 88.1075C60.1293 86.6995 61.066 85.5932 62.4596 84.7886L88.6352 69.6761C90.0288 68.8715 91.46 68.6916 92.9286 69.1363C94.4228 69.4854 95.5722 70.3568 96.3768 71.7504C97.1464 73.0835 97.2913 74.454 96.8116 75.862C96.3925 77.235 95.4861 78.3238 94.0925 79.1284L67.9169 94.2409ZM88.503 104.29C90.9872 102.855 93.6686 101.833 96.547 101.221C99.3905 100.549 102.191 99.9418 104.948 99.4001C107.731 98.7629 110.183 97.8321 112.304 96.6077C113.334 96.013 114.405 95.071 115.519 93.7816C116.633 92.4923 117.492 91.3907 118.095 90.4768C118.465 89.859 118.931 89.2668 119.493 88.7002C120.08 88.038 120.646 87.5496 121.192 87.2347C122.646 86.3951 124.016 86.2502 125.303 86.7998C126.651 87.3145 127.709 88.2384 128.479 89.5714C129.388 91.1468 129.6 92.8424 129.113 94.6584C128.592 96.4137 127.334 98.4326 125.339 100.715C124.433 101.804 123.257 102.846 121.812 103.842C120.402 104.898 119.074 105.746 117.827 106.385C116.338 107.164 114.393 107.923 111.993 108.663C109.627 109.463 107.166 110.238 104.609 110.987C102.017 111.676 99.6297 112.367 97.4459 113.063C95.2621 113.758 93.6249 114.42 92.5342 115.05C91.8071 115.47 91.0369 115.955 90.2236 116.505C89.4103 117.056 88.6448 117.619 87.927 118.195C87.2699 118.736 86.6909 119.272 86.1899 119.804C85.3347 120.701 84.7441 121.567 84.4181 122.402C84.057 123.176 83.3615 123.86 82.3314 124.455C81.2408 125.085 80.0439 125.251 78.7409 124.953C77.4028 124.594 76.3315 123.718 75.5269 122.324C74.7223 120.931 74.4468 119.474 74.7004 117.954C74.9539 116.435 75.6632 114.934 76.8282 113.454C77.7602 112.27 78.9136 111.119 80.2884 110.002C81.6283 108.824 83.0382 107.768 84.518 106.833C86.0234 105.802 87.3517 104.954 88.503 104.29ZM91.8229 110.25L82.0726 113.092C82.5804 112.153 82.8399 110.993 82.8511 109.613C82.9229 108.198 82.7208 106.659 82.2448 104.995C81.7944 103.235 81.0269 101.416 79.9425 99.5375C78.5431 97.1138 76.8934 94.956 74.9931 93.0639C73.0578 91.1112 71.1016 89.3322 69.1245 87.7269C67.173 86.026 65.3346 84.381 63.6092 82.7918C61.8839 81.2027 60.5139 79.5296 59.4994 77.7724C57.2955 73.9552 56.172 70.12 56.1288 66.2671C56.1112 62.3186 57.1578 58.604 59.2684 55.1233C61.4397 51.6076 64.7066 48.5904 69.0692 46.0717C71.5535 44.6374 74.0612 43.5935 76.5923 42.9401C79.0885 42.226 81.4647 41.864 83.721 41.8539C85.8211 41.8532 87.6405 42.1359 89.179 42.7018C90.7782 43.2327 91.9276 44.1041 92.6272 45.3159C93.5018 46.8307 93.7086 48.4483 93.2476 50.1686C92.7867 51.889 91.8291 53.1689 90.3749 54.0085C89.5872 54.4633 88.7423 54.7491 87.8403 54.8659C86.9383 54.9827 86.1528 54.9515 85.4838 54.7723C83.7028 54.3463 81.9581 54.2629 80.2497 54.5222C78.6018 54.7465 76.8993 55.3659 75.1422 56.3804C73.0214 57.6048 71.5138 59.1215 70.6194 60.9306C69.6899 62.679 69.2814 64.4903 69.3939 66.3643C69.5064 68.2382 70.0174 69.9629 70.9269 71.5383C71.6966 72.8713 72.9091 74.2718 74.5645 75.7397C76.2199 77.2077 78.0058 78.7618 79.9223 80.4021C81.8645 81.9469 83.7157 83.5441 85.476 85.1938C87.2364 86.8435 88.6063 88.5166 89.5858 90.2132C90.9502 92.5763 91.8157 94.985 92.1824 97.4393C92.5748 99.798 92.6804 102.08 92.4993 104.285C92.3182 106.49 92.0927 108.478 91.8229 110.25Z" fill="#FCFCFC"/>
<defs>
<linearGradient id="paint0_linear_2466_8344" x1="171.397" y1="36.0176" x2="284.885" y2="131.968" gradientUnits="userSpaceOnUse">
<stop stop-color="#18F5F5"/>
<stop offset="0.244792" stop-color="#F5B7D2"/>
<stop offset="0.510417" stop-color="#E744F6"/>
<stop offset="0.708333" stop-color="#862DFB"/>
<stop offset="1" stop-color="#00DBF9"/>
</linearGradient>
<linearGradient id="paint1_linear_2466_8344" x1="6.60551" y1="75.6153" x2="147.073" y2="29.8863" gradientUnits="userSpaceOnUse">
<stop stop-color="#18F5F5"/>
<stop offset="0.244792" stop-color="#F5B7D2"/>
<stop offset="0.510417" stop-color="#E744F6"/>
<stop offset="0.708333" stop-color="#862DFB"/>
<stop offset="1" stop-color="#00DBF9"/>
</linearGradient>
</defs>
</svg>
