<svg width="25" height="24" viewBox="0 0 25 24" fill="none" xmlns="http://www.w3.org/2000/svg">
<rect x="0.5" width="24" height="24" rx="8" fill="#3F3F55"/>
<path d="M18.862 8.66301C18.8717 8.80766 18.8717 8.95232 18.8717 9.09831C18.8717 13.5466 15.5697 18.6769 9.53173 18.6769V18.6743C7.7481 18.6769 6.00152 18.153 4.5 17.165C4.75935 17.197 5.02001 17.213 5.28131 17.2137C6.75944 17.215 8.19531 16.7064 9.35818 15.7698C7.9535 15.7425 6.72173 14.8032 6.29143 13.432C6.78349 13.5293 7.29049 13.5093 7.77345 13.374C6.24203 13.0567 5.14026 11.6768 5.14026 10.0742C5.14026 10.0596 5.14026 10.0456 5.14026 10.0316C5.59657 10.2922 6.10748 10.4369 6.63008 10.4529C5.18771 9.46428 4.7431 7.49643 5.61412 5.95788C7.28074 8.06105 9.73973 9.33962 12.3794 9.47495C12.1149 8.3057 12.4763 7.08046 13.3291 6.25852C14.6512 4.98395 16.7306 5.04928 17.9734 6.40451C18.7086 6.25586 19.4132 5.97921 20.058 5.58724C19.8129 6.36651 19.3001 7.02846 18.615 7.4491C19.2656 7.37044 19.9013 7.19179 20.5 6.91914C20.0593 7.59642 19.5042 8.18638 18.862 8.66301Z" fill="#E744F6"/>
</svg>
